# xmcd
#
# Track frame offsets:
#	182
#	16367
#	31412
#	48227
#	68535
#	84122
#	100660
#	122547
#	138742
#	165020
#	179782
#	209467
#	218770
#
# Disc length: 3331
#
# Revision: 3
# Processed by: cddbd v1.5.1PL0 Copyright (c) Steve Scherf et al.
# Submitted via: EasyCD2 v3.00 - Copyright (c) 1997 Greg Leichner
# Normalized: r1:TSWAP
#
DISCID=a50d010d
DTITLE=Soul Music Collection - 10. - Dalla Disco Alla Dance
DYEAR=1900
DGENRE=
TTITLE0=The Jacksons - Blame It On The Boogie
TTITLE1=LaBelle - Lady Marmalade
TTITLE2=Chic - Good Times
TTITLE3=Esther Phillips - What A Diff'rence A Day Makes
TTITLE4=Sister Sledge - We Are Family
TTITLE5=Herbie Hancock - I Thought It Was You
TTITLE6=Earth, Wind and Fire - Boogie Wonderland (With The Emotions)
TTITLE7=The Trammps - Disco Inferno
TTITLE8=MFSB - T.S.O.P. (The Sound Of Philadelphia)
TTITLE9=Tavares - More Than A Woman
TTITLE10=Sylvester - You Make Me Feel (Mighty Real)
TTITLE11=George McCrae - Sing A Happy Song
TTITLE12=Chic - I Want Your Love
EXTD=by David K. (Opatija City) - Croatia
EXTT0=
EXTT1=
EXTT2=
EXTT3=
EXTT4=
EXTT5=
EXTT6=
EXTT7=
EXTT8=
EXTT9=
EXTT10=
EXTT11=
EXTT12=
PLAYORDER=
